<?xml version="1.0" encoding="UTF-8"?>
<svg version="1.1" viewBox="0 0 1200 900" width="1280" height="1280" xmlns="http://www.w3.org/2000/svg">
<path transform="translate(0)" d="m0 0h1200v900h-1200z" fill="#FDFDFD"/>
<path transform="translate(495,248)" d="m0 0h14l10 3 4 8 5 18v4l-19 4-14 7-4 6v11l5 12 11 16 7 11 2 6v7l-5 9-9 8-14 8-6 2 1 2 5-1 14-8 10-8 5-7 1-3v-12l-6-12-12-17-6-12-1-10 4-6 6-4 12-4 11-2h4l8 25v3l23-5 16-5h3l-1 4-3 4v7l4 4h10l5-6 4 1 7-9 4-7-5-10 19-10 10-3 8-1h10l7 1 1 3 10 5 10 9 4 5 3 11v9l-4 22-12-2-6-4-8-9-3-7v-13l-2 1h-17l-7-1 2 4-3 1-8-5v-3l-7-1-10 15-5 11-1 4v14l5 14 8 7 10 4 4 1h9l12-3 9-6 6-5-1 11 2 6 10 2v-2l4-4 2-3v7l-4 24 34-2 27-3 1 11 4 8 11 8 4 2v-28l4 2 9 9 3 5v2l-13 1v51l53-10h6v2l-16 3-27 5-6 14-6 8-5 2-1 3-3 2-28 2h-53l-51-2-3 26-1 16v29l2 31-7-1-22-6-3 5-12 33-7 21-5 12-3 8v4l25-11 43-18 34-14h5l5 5 5 8 7 17v3l22-10h2v35l1 30-9 3h-5l3 26v17l-14 6-22 7-27 6-2-2 22-93 4-12 10-43h-2l-1 8-9 38-3 8-21 89-2 3-28-56-11-23-8-16-7-15v3l19 39 26 53 8 17 1 2-8 2-51 8-30 6h-3l2-11 20-71 4-13-2 1-21 75-6 20-24 4h-30l-18-4-14-6-11-8-5-4-8-11-2-5 22-11 23-11 22-11 23-11 28-14-53-23-42-18-1-2 109-11h7v-2l-108 11h-9l-1 5 9 3 53 23 31 13-1 3-33 16-51 25-27 13-3-1-4-14h-3-9l-5-2-13-3-12-6-10-9-7-8-6-12-4-14-1-15 2-16 4-14h3l26 26 8 7 19 19 2 1 3 5 5 5 3 1-2-4-7-7-8-7-25-25-8-7-17-17 3-10 10-20 14-23 12-17 14-18 18-22 7-9v-2l-18-11-12-9-5-4v-5l14-13 8-7 10-9 8-7 10-9 8-7 3-1 14 5 11 7 7 8 4 10v18l-4 15-7 14-9 12-8 8v2l4-2 8-8 10-15 6-15 3-13v-15l-4-11-7-9-14-9-11-4 2-4 12-11 8-7-1-4-11-20-2-5-11-23-13-31-7-18-6-16-7-18 1-5 8-9 11-9h2l1 12 33-10 15-5z" fill="#53D1A3"/>
<path transform="translate(435,106)" d="m0 0h9l7 6 5 11 4 12v2h2l1-10 3-6h5l2 4v15l-1 25 10 37 11-7 17-10 17-8 19-7 19-5 19-3 14-1h13l21 2 19 4 21 7 19 9 16 10 14 11 10 9 11 11 11 14 10 14 10 18 10 21 8 22 7 28 4 24 2 27v21l41-1 18-2-10-14-26-36-14-19-1-4 18-13 95-70 15-11 4 2 12 16 52 72 6 8-1 4-14 10-76 56-8 6-1 2 5 2 3 6v9l-2 10-4 5-10 4-14 1-33-2h-19l-25 2-11 1-44 8h-4l-1-44 1-7 5-1h8l-6-9-8-8-2-1v28l-5-2-10-7-4-6-1-3v-11l-17 3-23 2h-21v-8l3-16v-4l-3 4h-2v2h-7l-5-3-1-11v-3l-9 8-11 4-5 1h-9l-12-4-6-4-5-5-5-14v-14l4-11 7-12 6-8 7 2 1 3 7 4h2l-2-5 8 1h19l1 13 5 10 7 7 9 3 7 2 1-9 2-13v-9l-3-13-3-1-7-8-8-5-6-3-2-2-5-1h-10l-12 2-12 5-12 6 5 11-11 16-5-1-5 6h-10l-5-5v-7l4-5 1-3-19 6-17 4h-6l-8-25v-3l-22 5-10 5-4 6 1 10 7 14 12 17 5 10v12l-4 7-5 6-11 8-13 7-4-1v-2l17-9 11-9 5-9v-7l-4-9-7-11-10-15-4-10v-11l4-6 10-6 13-4 11-1-7-25-2-5-10-2-14-1 2 6-1 5-37 12-7 2h-4l-2-12-5-43-5-27-4-15-11-29-4-16v-11l3-6 5-4z" fill="#D8F3EB"/>
<path transform="translate(495,248)" d="m0 0h14l10 3 4 8 5 18v4l-19 4-14 7-4 6v11l5 12 11 16 7 11 2 6v7l-5 9-9 8-14 8-6 2 1 2 5-1 14-8 10-8 5-7 1-3v-12l-6-12-12-17-6-12-1-10 4-6 6-4 12-4 11-2h4l8 25v3l23-5 16-5h3l-1 4-3 4v7l4 4h10l5-6 4 1 7-9 4-7-5-10 19-10 10-3 8-1h10l7 1 1 3 10 5 10 9 4 5 3 11v9l-4 22-12-2-6-4-8-9-3-7v-13l-2 1h-17l-7-1 2 4-3 1-8-5v-3l-7-1-10 15-5 11-1 4v14l5 14 8 7 10 4 4 1h9l12-3 9-6 6-5-1 11 2 6 10 2v-2l4-4 2-3v7l-4 24 34-2 27-3 1 11 4 8 11 8 4 2v-28l4 2 9 9 3 5v2l-13 1v51l53-10h6v2l-16 3-27 5-6 14-6 8-5 2-1 3-3 2-28 2h-53l-51-2-3 26-1 16v29l2 31-7-1-22-6-2 1v-2l-9-2-36-12-29-11-23-10-20-9v-3l9-9 10-15 6-15 3-13v-15l-4-11-7-9-14-9-11-4 2-4 12-11 8-7-1-4-11-20-2-5-11-23-13-31-7-18-6-16-7-18 1-5 8-9 11-9h2l1 12 33-10 15-5z" fill="#5D85F2"/>
<path transform="translate(427,533)" d="m0 0 1 2 6 2 28 15 26 12 24 10 38 13 24 7 7 2-1 6-11 31-6 17-12 2-99 10h-9l-1 5 9 3 53 23 31 13-1 3-33 16-51 25-27 13-3-1-4-14h-3-9l-5-2-13-3-12-6-10-9-7-8-6-12-4-14-1-15 2-16 4-14h3l26 26 8 7 19 19 2 1 3 5 5 5 3 1-2-4-7-7-8-7-25-25-8-7-17-17 3-10 10-20 14-23 12-17 14-18 18-22z" fill="#5DE2B3"/>
<path transform="translate(495,248)" d="m0 0h14l10 3 4 8 5 18v4l-19 4-14 7-4 6v11l5 12 11 16 7 11 2 6v7l-5 9-9 8-14 8-6 2 1 2 5-1 14-8 10-8 5-7 1-3v-12l-6-12-12-17-6-12-1-10 4-6 6-4 12-4 11-2h4l9 29-15 3-2 2 1 6 5 10v2l13-3-1 3-9 3 3 5 5-1 4-1v3l-6 3 7 9 9 10 1 2-9 15-6 15-2 9v10l3 9 7 10 11 10 10 8 8 9 3 9v10l-4 15-10 23-1 3v8l4 8 8 7 14 8 16 6 8 2 1 2 2 31-7-1-22-6-2 1v-2l-9-2-36-12-29-11-23-10-20-9v-3l9-9 10-15 6-15 3-13v-15l-4-11-7-9-14-9-11-4 2-4 12-11 8-7-1-4-11-20-2-5-11-23-13-31-7-18-6-16-7-18 1-5 8-9 11-9h2l1 12 33-10 15-5z" fill="#5D85F2"/>
<path transform="translate(793,460)" d="m0 0h5l1 2-6 28-8 26-7 19-11 24-10 19-12 19-12 16-9 11-11 12-20 20-5 3-3 3h-3l-8-20-6-10-3-2-7 1-27 11-36 15-35 15-3 1 1-7 6-17 9-24 7-20 5-14 3-3 29 8-2-15-1-22v-23l3-36 2-6h23l28 1h58l23-2 7-6 5-5 9-18z" fill="#D8F3EB"/>
<path transform="translate(443,235)" d="m0 0h1l2 17v9l-10 9-7 6-3 4 1 7 10 25 9 24 11 26 12 26 1 4 2 1 2 5 9 17 1 4-7 7-8 7-7 6-1 2 6 1 12 6 9 7 6 8 4 11v15l-4 16-6 14-10 14-10 10-3-1 2-4 8-8 10-15 6-15 2-9v-18l-4-10-6-7-13-8-12-4-4 2-14 13-8 7-10 9-8 7-10 9-6 5v5l13 10 21 13 2 2-6 7-11 14-11 13-9 12-13 18-5 8-4-4-10-25-7-24-5-25-3-27v-44l3-28 6-31 8-28 10-26 11-24 10-18 16-24 14-18 12-13z" fill="#D8F3EB"/>
<path transform="translate(940,247)" d="m0 0 3 1 12 17 14 19 10 14 26 36 5 7-2 4-14 10-76 56-18 13-14 10h-2l-12-17-14-19-39-54-3-4 1-3 14-10 95-70z" fill="#FCFCFD"/>
<path transform="translate(479,593)" d="m0 0 2 1-16 27-13 24-8 17-2 5 9 3 53 23 31 13-1 3-33 16-51 25-27 13-3-1-4-14h-3-9l-5-2-13-3-12-6-10-9-7-8-6-12-4-14-1-15 2-16 4-14h3l26 26 8 7 19 19 2 1 3 5 5 5 3 1-2-4-8-8 1-7 4-9 13-28 10-17 9-14 8-10 10-1 2-5 10-16z" fill="#5DE2B2"/>
<path transform="translate(642,276)" d="m0 0h10l7 1 1 3 10 5 10 9 4 5 3 11v9l-4 22-12-2-6-4-8-9-3-7v-13l-2 1h-17l-7-1 2 4-3 1-8-5v-3l-7-1-10 15-5 11-1 4v14l5 14 8 7 10 4 4 1h9l12-3 9-6 6-5-1 11 2 6 10 2v-2l4-4 2-3v7l-6 32-3 9-3 5-10-1-20-5-19-7-5-2v-3l-6-2-3-2 2-5 8-14-4-2-6-5-2-4v-7h-2l-2 5-14 21-5-2-11-7-12-11-8-8-9-12 4-3h3l-1-2-5 2-4-1-3-6 10-3 1-2-9 3h-4l-7-15 1-4 5-3 26-5 21-6 6-1-1 4-3 4v7l4 4h10l5-6 4 1 7-9 4-7-5-10 19-10 10-3z" fill="#051124"/>
<path transform="translate(940,243)" d="m0 0 4 2 12 16 52 72 6 8-1 4-14 10-76 56-8 6-1 2 5 2 3 6v9l-2 10-4 5-10 4-14 1-33-2h-19l-25 2-11 1-44 8h-4l-1-44 1-7 5-1 84-1 18-2-10-14-26-36-14-19-1-4 18-13 95-70zm0 4-18 13-16 12-18 13-16 12-18 13-16 12-18 13-4 3 2 5 10 13 12 17 13 18 14 19 13 18 4 6 5-2 18-13 95-70 8-6-2-5-14-19-10-14-26-36-14-19-2-3z" fill="#FD9093"/>
<path transform="translate(545,704)" d="m0 0 1 3 11-3h3l-1 7-24 86-1 2-24 4h-30l-18-4-14-6-11-8-5-4-8-11-2-5 22-11 23-11 22-11 23-11 22-11 7-2v2h2z" fill="#5DE2B2"/>
<path transform="translate(435,106)" d="m0 0h9l7 6 5 11 4 12v2h2l1-10 3-6h5l2 4v15l-1 25 12 44 10 33 3 12-1 5-37 12-7 2h-4l-2-12-5-43-5-27-4-15-11-29-4-16v-11l3-6 5-4z" fill="#FE9093"/>
<path transform="translate(730,394)" d="m0 0h3l1 11 4 8 11 8 4 2v-28l4 2 9 9 3 5v2l-13 1v51l53-10h6v2l-16 3-27 5-6 14-6 8-5 2-1 3-3 2-13 1h-10l-5-12-6-12-5-5-5-2-25-3-7-3-7-6-4-8-1-3v-11l6-12 7-8 12-9h-5l-11 9-4 4 2-11 1-6 1 2 34-2z" fill="#5D85F2"/>
<path transform="translate(92,272)" d="m0 0 11 1 40 11 24 6 21 6 10 3 1 1v5l-12 13-14 15-24 26-14 15-11 12-5 1-2-2-13-52-6-26-7-29v-5z" fill="#FAFBFD"/>
<path transform="translate(456,443)" d="m0 0 9 2 14 7 8 7 6 10 1 4v18l-4 15-7 14-9 12-10 10-19-10-20-11-18-12-10-8v-5l14-13 8-7 10-9 8-7 10-9 8-7z" fill="#5D85F2"/>
<path transform="translate(570,669)" d="m0 0h4l20 41 26 53 8 17 1 2-8 2-51 8-30 6h-3l2-11 20-71 4-13h-2l4-16z" fill="#5DE2B2"/>
<path transform="translate(441,667)" d="m0 0 5 1 84 36 5 2-1 3-33 16-51 25-27 13-3-1-3-11 1-9 7-31 9-27z" fill="#5DE2B3"/>
<path transform="translate(728,643)" d="m0 0 9 1 9 6 6 9 5 11 8 25 13 49-1 6-4 3-3 1h-8l-11-4-8-6-7-8-10-17-6-3-10 1-3 1-1-8-1-23v-21l1-14 14-7z" fill="#FE9093"/>
<path transform="translate(683,672)" d="m0 0h2l5 21 3 21 1 14 2 18v17l-14 6-22 7-27 6-2-2 22-93 3-8 9-3z" fill="#5EE2B3"/>
<path transform="translate(612,301)" d="m0 0 7 2 1 3 7 4h2l-2-5 8 1h19l1 13 5 10 7 7 18 6 5 5 1 3v7l-4 6-5 4-5 1-1 2-4 5h-2v2h-7l-5-3-1-11v-3l-9 8-11 4-5 1h-9l-12-4-6-4-5-5-5-14v-14l4-11 7-12z" fill="#F78D93"/>
<path transform="translate(405,564)" d="m0 0 8 6 16 13 13 10 14 11 10 8v3l-10 2-10 13-13 22-8 16-9 19-4 10-2 4-31-31-8-7-17-17 3-10 6-12 25-3 67-7 6-2-12-10-28-22-15-12-2-1z" fill="#5FE3B3"/>
<path transform="translate(692,74)" d="m0 0h8l13 4 9 6 7 8 4 9 1 5v13l-3 10-7 10-7 6-11 5-6 1h-8l-16-4v-2l-4-2-7-7-6-12-1-5v-13l3-10 6-9 8-7 12-5z" fill="#FEDEAB"/>
<path transform="translate(940,257)" d="m0 0 4 4 12 17 13 18 1 3 5 5 10 14 13 18 2 5-6 5-2-1-6-9-4-5-5 2-8 6 2 4 7 10 3 2-13 10-18 13-5-5-10-14-7-10 1-2h3l-1-6 3-3 5 1 3 3 6-7 4-10 1-16-19 9-3-1 21-10-2-12 1-5-2-3-7-2-6-5-1-2-4-1-10-5 5-5z" fill="#61E2B4"/>
<path transform="translate(553,653)" d="m0 0h7l1 2-16 44-3 8-9-3-53-23-35-15-1-2z" fill="#5EE2B3"/>
<path transform="translate(652,679)" d="m0 0 1 3-22 93-2 3-28-56-11-23-1-4z" fill="#5EE3B3"/>
<path transform="translate(402,564)" d="m0 0 2 1v2l4 2 28 22 25 20 1 2-7 2-87 9h-4l2-6 10-17 12-18 9-12z" fill="#5DE2B2"/>
<path transform="translate(642,276)" d="m0 0h10l7 1 1 3 10 5 10 9 4 5 3 11v9l-4 22-12-2-6-4-8-9-3-7v-13l-2 1h-17l-7-1 2 4-3 1-8-5v-3l-7-1-8 12-1-3 7-10-5-11 19-10 10-3z" fill="#051124"/>
<path transform="translate(92,272)" d="m0 0 11 1 40 11 24 6 21 6 10 3 1 1v5l-12 13-14 15-24 26-14 15-11 12-5 1-2-2-13-52-6-26-7-29v-5zm9 10 1 8 13 54 7 29h3l14-15 12-13 14-15 12-13 10-11v-2l-27-7-21-6-24-6-10-3z" fill="#0E2450"/>
<path transform="translate(488,565)" d="m0 0 4 1 25 10 40 13 24 7-1 6-11 31-6 15-2-3-7-8-7-7-7-8-15-16-24-26-13-14z" fill="#5FE1B4"/>
<path transform="translate(1109,567)" d="m0 0h9l8 3 7 5 5 8 1 4v12l-5 10-8 7-9 3h-7l-11-4-5-4-5-8-2-7 1-11 4-8 8-7z" fill="#5D85F2"/>
<path transform="translate(433,526)" d="m0 0 5 1 19 10 14 7 29 13 30 12 28 10 28 9-1 6-12 33-7 21-5 12-18 50h-2l1-6 18-49 14-39 7-20-10-2-30-9-32-11-17-7-15-7-23-11-22-12-4-2 1-5z" fill="#0D224C"/>
<path transform="translate(940,243)" d="m0 0 4 2 12 16 52 72 6 8-1 4-14 10-76 56-18 13-19 14-4-2-6-8v-2l-6 5-4-2-9-11-5-5v-2l11-1-10-14-26-36-14-19-1-4 18-13 95-70zm0 4-18 13-16 12-18 13-16 12-18 13-16 12-18 13-4 3 2 5 10 13 12 17 13 18 14 19 13 18 4 6 5-2 18-13 95-70 8-6-2-5-14-19-10-14-26-36-14-19-2-3z" fill="#132A5A"/>
<path transform="translate(683,400)" d="m0 0h6l-5 5-11 9-7 11-2 5v11l4 9 5 6 5 3 9 2 20 2 8 4 7 11 6 16v2h-58l-28-1h-28l-12-4v-2l13-1 79-6 24-2-6-9-4-3-25-3-9-3-9-8-5-10-1-4v-9l5-12 9-11z" fill="#5279D1"/>
<path transform="translate(331,350)" d="m0 0 10 1 6 3 5 5 4 6 1 4v8l-3 8-5 6-7 4-4 1h-8l-8-3-5-4-4-6-2-7 1-10 5-8 7-6z" fill="#FEDEAB"/>
<path transform="translate(479,593)" d="m0 0 2 1-16 27-13 24-8 17-10 25-8 24-8 36-2 1 1-11 4-18v-8l-10-10 1-7 4-9 13-28 10-17 9-14 8-10 10-1 2-5 10-16z" fill="#54D0A5"/>
<path transform="translate(975,104)" d="m0 0 12 7 10 7 12 7-7 12-14 22-11-6-23-15 8-14 11-17z" fill="#0D234E"/>
<path transform="translate(495,248)" d="m0 0h14l9 3-2 2-26 10-26 9-2 16-4 11-4 5-5 2-1 4-8 5-3-1-6-14-6-16 1-5 8-9 11-9h2l1 12 33-10 15-5z" fill="#547BD4"/>
<path transform="translate(652,777)" d="m0 0h7l3 7 1 9v24l-4 5-2 1-9-1-10-6-9-9-6-12-1-10 6-2h5v-2z" fill="#FE9294"/>
<path transform="translate(975,307)" d="m0 0 3 1 12 17 10 14-2 4-4 3-2-1-6-9-4-5-5 2-8 6 2 4 7 10 3 2-13 10-18 13-5-5-3-4 1-5 30-52z" fill="#5FE2B3"/>
<path transform="translate(448,309)" d="m0 0 3 1 15 41 14 36 1 6-9 3-8-16-13-29-13-33v-3z" fill="#547BD5"/>
<path transform="translate(704,652)" d="m0 0h2v35l1 30-9 3h-5l-4-27-6-28v-3z" fill="#0D224E"/>
<path transform="translate(279,51)" d="m0 0 11 6 17 11-8 14-9 14-5-2-23-15 2-5 14-22z" fill="#5DE2B2"/>
<path transform="translate(920,272)" d="m0 0 9 3 4 3-2 5-14 24-8 13-4-2-14-19-2-4 10-8 17-12z" fill="#FE9193"/>
<path transform="translate(588,283)" d="m0 0h10l6 5 7 12-4 7-7 10-5-1-5 6h-10l-5-5v-7l4-5v-11l3-6z" fill="#FA9095"/>
<path transform="translate(936,279)" d="m0 0 7 6 7 2 2 3-1 8 2 9-11 4-29 13-3-1 1-4 13-22 10-17z" fill="#FB9095"/>
<path transform="translate(934,738)" d="m0 0 5 1 18 14 52 40 9 7v5l-2 2-5-1-18-14-52-40-9-7v-5z" fill="#0F2552"/>
<path transform="translate(553,369)" d="m0 0 3 1-2 6-8 14-5 16v14l5 10 9 10 14 11 8 8 4 7 1 4v16l-4 14-9 20-1 3v10l4 6 7 6 15 8 15 5 6 1v5l-15-4-16-7-12-8-7-8-2-5v-8l7-17 6-15 2-9v-10l-3-9-9-10-16-13-8-9-5-9-1-5v-10l4-15 8-16z" fill="#71E4BB"/>
<path transform="translate(940,257)" d="m0 0 4 4 12 17 13 18 2 5-28 13-9 4-3-1 21-10-2-12 1-5-2-3-7-2-6-5-1-2-4-1-10-5 5-5z" fill="#5FD5BC"/>
<path transform="translate(951,309)" d="m0 0h2v16l-4 10-7 8-5-4-4 1-1 5-4 2-5-5-11-14 1-3 15-7 8-2z" fill="#F99298"/>
<path transform="translate(561,649)" d="m0 0 1 3-2 2-17 1-98 10 53 23 35 15 8 4-4 3-23 11-22 11-23 11-22 11-23 11-3-1 8-5 33-16 51-25 21-10 1-2-5-1-56-24-32-14 1-5 117-12z" fill="#F8E1B4"/>
<path transform="translate(597,362)" d="m0 0h2l2 9 5 5 5 2 1 2-10 17-5 6-5 2-7-1-6-5-1-2v-6z" fill="#FA8F94"/>
<path transform="translate(753,395)" d="m0 0 4 2 9 9 3 5v2l-13 1v51l53-10h6v2l-16 3-27 5-6 14-6 8-5 2-1 3h-1l-1-26z" fill="#0D224D"/>
<path transform="translate(101,805)" d="m0 0h5l1 1v6l-5 1-1 2h18v18h3v6h-15v-5l3-1v-12h-9v12h4v6h-15v-6h3v-12h-3v-6h3l1-6 4-3z" fill="#0EC771"/>
<path transform="translate(408,703)" d="m0 0 1 2 4 2 5 5 4 2-1 9-5 24-3 1h-9l-3-2 1-21 4-17z" fill="#54D1A5"/>
<path transform="translate(570,382)" d="m0 0 5 2 5 5-1 2v6l4 5 5 2 7-1 6-5 9 5-2 5-8 6-7 2-10-1-8-4-6-7-2-6v-9z" fill="#63E2B5"/>
<path transform="translate(209,541)" d="m0 0h8l6 4 3 5v9l-3 5-6 4h-10l-6-4-3-7v-6l4-6 3-3z" fill="#0E234E"/>
<path transform="translate(665,632)" d="m0 0h2l-1 8-9 39-3 8-22 93 1 3h-4l-25-50-11-23-13-26-7-16h3l12 26 10 19 16 33 15 31 4-15 19-80 3-8z" fill="#F7E1B6"/>
<path transform="translate(528,280)" d="m0 0 3 1v3l-20 4-10 4-5 4-2 4 1 10 7 14 12 17 5 10v12l-4 7-5 6-11 8-13 7-4-1v-2l17-9 11-9 5-9v-7l-4-9-7-11-10-15-4-10v-11l4-6 10-6 13-4z" fill="#70E4BA"/>
<path transform="translate(574,665)" d="m0 0 2 1-3 3h-3l-2 10-7 25-16 4 1-9 10-28 2 1z" fill="#53D1A4"/>
<path transform="translate(683,400)" d="m0 0h6l-5 5-11 9-7 11-2 5v11l4 9 5 6 5 3 9 2 20 2 8 4 7 11 6 16v2h-5l-1-6-5-12-6-8-3-2-25-3-9-3-9-8-5-10-1-4v-9l5-12 9-11z" fill="#71E3BA"/>
<path transform="translate(752,468)" d="m0 0h1v24l-2 2-13 1h-10l-5-12v-4l28-6z" fill="#547BD4"/>
<path transform="translate(668,266)" d="m0 0h11l6 4 4 8v8l-4 8-3-1-6-7-10-6-7-3 2-5 5-5z" fill="#051225"/>
<path transform="translate(495,248)" d="m0 0h14l9 3-2 2-26 10-34 11-27 7-4-1 9-10 11-9h2l1 12 33-10 15-5z" fill="#0C214C"/>
<path transform="translate(459,440)" d="m0 0 13 4 14 9 7 8 4 9 1 4v15l-4 16-6 14-10 14-10 10-3-1 2-4 8-8 10-15 6-15 2-9v-18l-4-10-6-7-13-8-12-4v-3z" fill="#72E4BB"/>
<path transform="translate(159,814)" d="m0 0 8 1 5 5 1 9h-15l2 3h6l4-1 2 3-1 4-4 2h-9l-5-3-4-6v-7l3-6 4-3z" fill="#16C975"/>
<path transform="translate(1095,574)" d="m0 0 2 1-3 5v13l5 10 8 6 5 2h12l9-3-2 4-5 4-9 3h-7l-11-4-5-4-5-8-2-7 1-11 4-8z" fill="#547CD6"/>
<path transform="translate(121,815)" d="m0 0h13v6h-2l3 8 2-7-1-1v-6h13v6h-3l-3 10-3 8h-11l-4-12-1-6h-3z" fill="#0DC770"/>
<path transform="translate(459,272)" d="m0 0h1l-1 13-3 10-5 7h-2l-1 3-8-22v-3l-9 2-4-1 21-6z" fill="#5D85F1"/>
<path transform="translate(405,564)" d="m0 0 8 6 16 13 13 10 14 11 10 8v3l-10 2-86 9h-6l1-2 13-2 77-8 6-2-12-10-28-22-15-12-2-1z" fill="#F8E1B4"/>
<path transform="translate(573,669)" d="m0 0 3 4 10 21v3l-22 5 1-8 7-24z" fill="#53D2A4"/>
<path transform="translate(980,330)" d="m0 0 4 2 9 12-3 5-7 5h-5l-10-13 2-4z" fill="#F4DFAD"/>
<path transform="translate(479,593)" d="m0 0 2 1-16 27-13 24-8 17-10 25-8 24-8 36-2 1 1-11 6-26 10-30 11-26 14-28 16-27z" fill="#0D224D"/>
<path transform="translate(737,393)" d="m0 0h12l4 2v24l-5-2-7-5-4-6-1-10z" fill="#5E86F3"/>
<path transform="translate(212,814)" d="m0 0 3 1v8l-7 2-2 8h4v6h-15v-6h3v-12h-3v-6h10l2 2z" fill="#0CC66F"/>
<path transform="translate(191,814)" d="m0 0 3 1v8l-7 2-2 8h4v6h-15v-6h3v-12h-3v-6h10l2 2z" fill="#0BC66F"/>
<path transform="translate(561,649)" d="m0 0 1 3-2 2-17 1-98 10 14 6-1 3-16-7 1-5 117-12z" fill="#F7E2B6"/>
<path transform="translate(488,565)" d="m0 0 4 1 8 8 7 8 16 17 11 12 14 15 12 13 2 4h2l-1 5-2-3-7-8-7-7-7-8-15-16-24-26-13-14z" fill="#F7E0B5"/>
<path transform="translate(561,703)" d="m0 0h2l-4 17-20 71-4 10-1-4 24-86z" fill="#F9E0B3"/>
<path transform="translate(353,646)" d="m0 0 4 2 20 20 8 7 25 25 8 7 4 4-1 3-5-3-6-6v-3l-4-2-23-23-8-7-21-21z" fill="#F9E0B1"/>
<path transform="translate(513,718)" d="m0 0 2 1-3 3-53 26-35 17-3-1 8-5 33-16z" fill="#F6E2B7"/>
<path transform="translate(940,257)" d="m0 0 4 4 1 3h-2l-2 5-6 9-4-1-10-5 5-5z" fill="#60E2B3"/>
<path transform="translate(572,621)" d="m0 0h3l-9 27-5 12-18 50h-2l1-6 18-49z" fill="#0D224D"/>
<path transform="translate(665,632)" d="m0 0h2l-1 8-9 39-3 8-7 29h-2l1-9 7-28 3-9z" fill="#FBDFAF"/>
<path transform="translate(599,358)" d="m0 0 5 5 5 4 8 4-4 7-4 1-8-6-2-4-1-9z" fill="#102552"/>
<path transform="translate(479,593)" d="m0 0 2 1-16 27-13 24-8 17-2 3-1-3 11-23 11-21 14-23z" fill="#0D224D"/>
<path transform="translate(734,392)" d="m0 0h3v10l3 7 1 3 4 2 8 5v4l-5-2-10-7-4-6-1-3v-12z" fill="#70E4BA"/>
<path transform="translate(660,358)" d="m0 0 2 1-1 4v7l1 3 7-1 3-3v-10l3 2 1 6-3 7-3 1v2h-7l-5-3-1-11z" fill="#E0E8F8"/>
<path transform="translate(460,272)" d="m0 0 4 1-2 15-4 11-4 5-5 2v-4l5-5 3-8z" fill="#6FE3BA"/>
<path transform="translate(477,591)" d="m0 0 4 2-5 5-9 15-6-4 2-4z" fill="#54D0A7"/>
<path transform="translate(583,303)" d="m0 0h6l1 2-9 3-2 3 1 6 2 2 7-1 3-3h2l-1 4-3 3h-10l-5-5v-7l5-6z" fill="#E7EDF9"/>
<path transform="translate(407,619)" d="m0 0h10v2l-47 5h-6l1-2 13-2z" fill="#F8E1B5"/>
<path transform="translate(974,307)" d="m0 0 1 3-14 25-14 24-5 8-2-2 6-9 10-18 14-24z" fill="#5E86F3"/>
<path transform="translate(581,307)" d="m0 0 7 5 4 2-2 4-3 2h-5l-4-5 1-6z" fill="#061429"/>
<path transform="translate(561,649)" d="m0 0 1 3-2 2-17 1-20 2h-9l1-2 45-5z" fill="#F9E0B3"/>
<path transform="translate(659,277)" d="m0 0 9 3 9 6 6 7 1 3-3 1-8-9-8-5-6-3z" fill="#EBF0FA"/>
<path transform="translate(943,286)" d="m0 0h6l3 4-1 5-3 2-6-1-1-2v-6z" fill="#FBFDFC"/>
<path transform="translate(574,667)" d="m0 0 3 3 11 24 7 14h-3l-12-24-7-16z" fill="#F8E1B4"/>
<path transform="translate(933,278)" d="m0 0h2l-2 5-13 23-10 16-3-2h2l2-5 9-15z" fill="#FDE2B7"/>
<path transform="translate(614,751)" d="m0 0 3 1 12 25 1-2 3 1-1 5 1 2h-4l-15-30z" fill="#F7E2B8"/>
<path transform="translate(661,362)" d="m0 0 9 5 2 1-2 4-5 2-3-1-2-3v-7z" fill="#051226"/>
<path transform="translate(572,621)" d="m0 0h3l-9 27-4 10-2-1 3-11z" fill="#1B3469"/>
<path transform="translate(513,718)" d="m0 0 2 1-3 3-29 14-2-1 8-5z" fill="#F9E0B2"/>
<path transform="translate(134,742)" d="m0 0h5l2 3-1 5-1 1h-6l-2-2 1-5z" fill="#142B5B"/>
<path transform="translate(874,543)" d="m0 0 5 1 1 1v6l-2 2-5-1-2-2v-5z" fill="#142B5B"/>
<path transform="translate(570,669)" d="m0 0 3 1-9 31h-3z" fill="#FCDFAE"/>
<path transform="translate(321,120)" d="m0 0 5 1 2 2-1 5-3 2-4-1-2-3 1-4z" fill="#0E2450"/>
<path transform="translate(446,615)" d="m0 0 3 1-1 2-31 3v-3z" fill="#F8E1B5"/>
<path transform="translate(934,338)" d="m0 0 5 1 1 1v6l-3 2-4-1-2-2 1-5z" fill="#0D224D"/>
<path transform="translate(1090,337)" d="m0 0 6 1 1 1v5l-2 2h-5l-2-2v-5z" fill="#0E234E"/>
<path transform="translate(633,320)" d="m0 0 3 1-16 15 1 3 3 2v2l-5-2-2-2 1-5 8-8z" fill="#06152C"/>
<path transform="translate(638,746)" d="m0 0 1 4-6 25h-2l1-8 5-20z" fill="#FAE0B1"/>
<path transform="translate(574,665)" d="m0 0 2 1-3 3h-3l-1 3-5 1-7 3-2 2 1-7 2 1z" fill="#5DDDB4"/>
<path transform="translate(446,751)" d="m0 0m-2 1h2v2l-22 11-3-1 8-5z" fill="#F9E0B2"/>
<path transform="translate(720,480)" d="m0 0 3 1 5 13v2h-5l-1-6-3-9z" fill="#55D2A4"/>
<path transform="translate(411,701)" d="m0 0 7 6 4 4-1 3-5-3-6-6z" fill="#F9E8C7"/>
<path transform="translate(651,691)" d="m0 0 1 4-5 21h-2l1-9 4-15z" fill="#FBDFAF"/>
<path transform="translate(665,632)" d="m0 0h2l-1 8-4 17h-2l1-8z" fill="#FCDEAD"/>
<path transform="translate(421,723)" d="m0 0h1l-1 10-3 14-2 1 1-11 3-13z" fill="#0C214C"/>
<path transform="translate(648,323)" d="m0 0 4 1 5 6-1 4-3-1-3-5-3-3z" fill="#06142B"/>
<path transform="translate(443,662)" d="m0 0 2 1v2l14 6-1 3-16-7z" fill="#F2E0BA"/>
<path transform="translate(135,815)" d="m0 0h1v6l2 1-3 9-2-3-1-7 2-1z" fill="#F4FBF8"/>
<path transform="translate(919,303)" d="m0 0 1 3-10 16-3-2h2l2-5 7-11z" fill="#FEDEAB"/>
<path transform="translate(407,619)" d="m0 0h10v2l-8 1h-11l1-2z" fill="#FBDFAF"/>
<path transform="translate(539,783)" d="m0 0 1 4-4 13-2 1 1-8 3-9z" fill="#FAE0B1"/>
<path transform="translate(656,675)" d="m0 0 1 4-3 8-1 4-3 1 3-13z" fill="#F6E2B8"/>
<path transform="translate(452,661)" d="m0 0h10v2l-8 1h-10l1-2z" fill="#FAE0B1"/>
<path transform="translate(570,669)" d="m0 0 3 1-4 14-2-1 1-7z" fill="#F8E1B4"/>
<path transform="translate(809,455)" d="m0 0h6v2l-11 2h-5l1-2z" fill="#152D5E"/>
<path transform="translate(477,390)" d="m0 0h4v3l-9 3v-4z" fill="#63D6AC"/>
<path transform="translate(447,306)" d="m0 0h2l-1 4-8 5-3-1 3-3z" fill="#57D2A5"/>
<path transform="translate(589,293)" d="m0 0 9 3 4 6v3h-2l-3-6-8-4z" fill="#071630"/>
<path transform="translate(670,347)" d="m0 0 7 1 6 7v3h-2l-3-6-8-4z" fill="#06152D"/>
<path transform="translate(458,745)" d="m0 0m-2 1h2l-1 3-11 5 2-4z" fill="#F6E2B7"/>
<path transform="translate(525,712)" d="m0 0 2 1-3 3-8 4-2-1 3-3z" fill="#F6E2B7"/>
<path transform="translate(512,655)" d="m0 0 3 1-1 2-13 1 1-3z" fill="#F5E3BA"/>
<path transform="translate(477,591)" d="m0 0 4 2-5 3-1-3z" fill="#54CDA8"/>
<path transform="translate(541,772)" d="m0 0 3 1-3 11-2-1 1-8z" fill="#F4E3BB"/>
<path transform="translate(550,740)" d="m0 0 3 1-3 11h-3z" fill="#F6E2B8"/>
<path transform="translate(468,740)" d="m0 0 2 1-3 3-9 4 2-4z" fill="#FBDFAF"/>
<path transform="translate(558,715)" d="m0 0h1l-1 8-2 4h-2l3-11z" fill="#F7E2B6"/>
<path transform="translate(561,649)" d="m0 0 1 3-2 2h-9v-3l9-1z" fill="#EFE0BD"/>
<path transform="translate(426,617)" d="m0 0 3 1-1 2-11 1v-3z" fill="#F4E3BB"/>
<path transform="translate(468,267)" d="m0 0h4v2l-10 3-3-1z" fill="#0D224D"/>
</svg>
